# xmcd CD database file
#
# Track frame offsets:
#	150
#	26925
#	60290
#	83610
#	118067
#	137645
#
# Disc length: 2169 seconds
#
# Revision: 0
# Processed by: cddbd v1.4PL0 Copyright (c) Steve Scherf et al.
# Submitted via: CDex 1.51
#
DISCID=47087706
DTITLE=Various Artist - Paule Ka Loves Trip Do Brasil
DYEAR=2000
DGENRE=Rhythmic Soul
TTITLE0=Jose Padilla|bossa rossa
TTITLE1=Rom|ibis vermelho (ibis frisco remix by Ernest Saint Laurent)
TTITLE2=WR|non fatiguing natural silk
TTITLE3=The Rhythm Section|praia sol saudade
TTITLE4=DJ Cam|birds also sing for anamaria
TTITLE5=Bab and Rolando|mas que nada (acoustic mix)
EXTD=YEAR: 2000
EXTT0=
EXTT1=
EXTT2=
EXTT3=
EXTT4=
EXTT5=
PLAYORDER=
